<?xml version="1.0" standalone="no"?>
<!DOCTYPE svg PUBLIC "-//W3C//DTD SVG 20010904//EN"
 "http://www.w3.org/TR/2001/REC-SVG-20010904/DTD/svg10.dtd">
<svg version="1.0" xmlns="http://www.w3.org/2000/svg"
 width="150.000000pt" height="150.000000pt" viewBox="0 0 150.000000 150.000000"
 preserveAspectRatio="xMidYMid meet">
<metadata>
Created by potrace 1.14, written by Peter Selinger 2001-2017
</metadata>
<g transform="translate(0.000000,150.000000) scale(0.100000,-0.100000)"
fill="#000000" stroke="none">
<path d="M835 1417 c-11 -8 -40 -25 -65 -38 -25 -13 -47 -27 -50 -30 -3 -3
-30 -19 -60 -35 -86 -48 -154 -86 -165 -94 -5 -4 -30 -19 -55 -32 -53 -30
-244 -140 -248 -143 -2 -2 19 -16 46 -33 l49 -30 53 30 c29 16 152 87 274 157
122 70 247 142 279 160 31 18 57 36 57 41 0 7 -81 60 -92 60 -2 0 -12 -6 -23
-13z"/>
<path d="M679 1175 c-156 -90 -304 -176 -329 -192 l-45 -28 0 -433 c0 -239 3
-436 8 -439 7 -4 365 197 413 231 23 17 29 110 6 101 -7 -2 -83 -45 -169 -95
-86 -50 -159 -88 -162 -84 -3 3 -7 155 -7 338 l-2 333 230 133 c238 137 271
153 268 129 -1 -8 -2 -76 -1 -152 l1 -138 43 23 42 23 0 204 c0 111 -2 204 -5
206 -4 2 -134 -70 -291 -160z"/>
<path d="M1031 925 c-128 -73 -235 -136 -238 -139 -3 -3 6 -11 20 -17 22 -10
32 -8 69 13 309 178 418 242 418 247 0 3 -8 11 -18 18 -16 9 -54 -9 -251 -122z"/>
<path d="M174 571 l1 -439 41 -26 c23 -14 46 -26 51 -26 10 0 13 875 3 882
-13 9 -88 48 -93 48 -2 0 -4 -198 -3 -439z"/>
<path d="M1269 972 c-24 -16 -51 -31 -59 -35 -8 -3 -91 -51 -185 -105 l-170
-98 0 -293 c-1 -161 2 -294 6 -296 3 -3 73 34 155 82 82 47 185 107 229 132
l80 47 0 297 c1 163 -2 297 -5 297 -3 0 -26 -13 -51 -28z m36 -288 l1 -265
-41 -23 c-22 -13 -62 -36 -90 -52 -27 -15 -93 -52 -145 -82 -127 -74 -143 -82
-149 -76 -7 6 -10 514 -3 532 2 6 7 12 12 12 4 0 96 52 205 115 110 63 201
112 204 109 3 -2 5 -124 6 -270z"/>
<path d="M1248 899 c-16 -9 -18 -30 -18 -217 0 -196 1 -208 20 -220 11 -7 21
-9 21 -5 4 27 3 453 -1 453 -3 0 -13 -5 -22 -11z"/>
<path d="M1174 424 c-21 -13 -72 -41 -112 -64 -128 -72 -157 -94 -158 -117 -2
-26 -1 -26 104 39 34 21 64 38 66 38 11 0 176 102 176 109 0 19 -39 17 -76 -5z"/>
<path d="M774 458 c1 -268 2 -294 18 -306 10 -7 22 -11 26 -8 4 2 7 136 6 297
-2 297 -4 308 -40 309 -7 0 -11 -88 -10 -292z"/>
</g>
</svg>
